<?xml version="1.0" encoding="UTF-8" standalone="yes"?>

<svg version="1.1" xmlns="http://www.w3.org/2000/svg" xml:space="preserve"
     xmlns:xlink="http://www.w3.org/1999/xlink"
     id="icon"
     width="48px" height="48px"
     viewBox="-23 -23 48 48"

     fill=  "hsl( 60,  60%,  50%)"
     stroke="hsl( 60,  60%,  40%)"
     stroke-width="2"
     stroke-linecap="round"
     stroke-linejoin="round">

  <defs>

    <filter id="shadow" color-interpolation-filters="sRGB">
      <feFlood        result="black" flood-color="hsl(0, 0%, 0%)" flood-opacity="0.5"/>
      <feComposite    result="cut-out" in="black" in2="SourceGraphic" operator="in"/>
      <feGaussianBlur result="blur" in="cut-out" stdDeviation="1"/>
      <feOffset       result="offset" dx="1" dy="1"/>
      <feComposite    result="final" in="SourceGraphic" in2="offset" operator="over"/>
    </filter>

    <symbol id="bg-rect" overflow="visible">
      <path d="M 0 0
        m                                  -17.00 -20.00
        h                                   34.00
        c    1.65   0.00     3.00   1.35     3.00   3.00
        v                                          34.00
        c    0.00   1.65    -1.35   3.00    -3.00   3.00
        h                                  -34.00
        c   -1.65   0.00    -3.00  -1.35    -3.00  -3.00
        v                                         -34.00
        c    0.00  -1.65     1.35  -3.00     3.00  -3.00
        z"/>
    </symbol>

    <symbol id="lock" overflow="visible">
      <path d="M 0 -4
        m                                    0.00  -9.00
        c    4.42   0.00     8.00   3.58     8.00   8.00
        v                                           2.00
        h                                   -4.00
        v                                          -2.00
        c    0.00  -2.21    -1.79  -4.00    -4.00  -4.00
        c   -2.21   0.00    -4.00   1.79    -4.00   4.00
        v                                           2.00
        h                                   -4.00
        v                                          -2.00
        c    0.00  -4.42     3.58  -8.00     8.00  -8.00
        z"/>
      <path d="M 0 4
        m                                    9.00  -8.00
        c    1.65   0.00     3.00   1.35     3.00   3.00
        v                                          10.00
        c    0.00   1.65    -1.35   3.00    -3.00   3.00
        h                                  -18.00
        c   -1.65   0.00    -3.00  -1.35    -3.00  -3.00
        v                                         -10.00
        c    0.00  -1.65     1.35  -3.00     3.00  -3.00
        h                                   18.00
        z"/>
      <line x1="-12" y1="4" x2="12" y2="4"/>
      <circle cx="0" cy="4" r="2"/>
    </symbol>

  </defs>

  <g id="background"
     filter="url(#shadow)">

    <use cx="0" cy="0" xlink:href="#bg-rect"/>

  </g>

  <g id="foreground"
     fill="hsl(0, 0%, 100%)">

    <use x="0" y="0" xlink:href="#lock"/>

  </g>

</svg>
